<?xml version="1.0" encoding="utf-8"?>
<!-- Generator: Adobe Illustrator 21.1.0, SVG Export Plug-In . SVG Version: 6.00 Build 0)  -->
<svg version="1.1" id="Layer_1" xmlns="http://www.w3.org/2000/svg" xmlns:xlink="http://www.w3.org/1999/xlink" x="0px" y="0px"
	 viewBox="0 0 54 54" style="enable-background:new 0 0 54 54;" xml:space="preserve">
<style type="text/css">
	.st0{fill:none;}
</style>
<g>
	<rect x="-0.2" y="0.1" class="st0" width="53.8" height="53.4"/>
	<path d="M26.6,8.7c3.1,0,6.1,0,9.1,0.1c2.9,0.1,5,0.2,6.4,0.3l2,0.1c0,0,0.2,0,0.5,0c0.3,0,0.5,0.1,0.6,0.1c0.1,0,0.3,0.1,0.7,0.1
		c0.3,0.1,0.6,0.1,0.8,0.2s0.5,0.2,0.8,0.4c0.3,0.1,0.6,0.3,0.9,0.5c0.3,0.2,0.5,0.5,0.8,0.7c0.1,0.1,0.3,0.3,0.4,0.5
		c0.2,0.2,0.4,0.8,0.8,1.6c0.4,0.9,0.6,1.8,0.7,2.8c0.1,1.2,0.3,2.5,0.3,3.8c0.1,1.3,0.1,2.4,0.2,3.2v1.1v3.8c0,2.7-0.1,5.4-0.5,8.1
		c-0.1,1-0.4,1.9-0.7,2.8c-0.3,0.8-0.6,1.4-0.9,1.7l-0.4,0.5c-0.3,0.3-0.5,0.5-0.8,0.7c-0.3,0.2-0.6,0.4-0.9,0.5
		c-0.3,0.1-0.6,0.3-0.8,0.3c-0.2,0.1-0.5,0.2-0.8,0.2c-0.3,0.1-0.5,0.1-0.7,0.1c-0.1,0-0.4,0.1-0.6,0.1s-0.4,0-0.5,0
		c-4.7,0.4-10.5,0.5-17.5,0.5c-3.9,0-7.2-0.1-10-0.2c-2.8-0.1-4.7-0.2-5.6-0.2l-1.4-0.1l-1-0.1C8,43.1,7.5,43,7.1,42.9
		c-0.3-0.1-0.8-0.3-1.4-0.6c-0.6-0.3-1.1-0.7-1.6-1.1c-0.1-0.1-0.3-0.3-0.4-0.5c-0.2-0.2-0.4-0.8-0.8-1.6c-0.4-0.9-0.6-1.8-0.7-2.8
		c-0.1-1.2-0.3-2.5-0.3-3.8c-0.1-1.3-0.1-2.4-0.2-3.2v-1.1v-3.8c0-2.7,0.1-5.4,0.5-8.1c0.1-1,0.4-1.9,0.7-2.8s0.6-1.4,0.9-1.7
		l0.4-0.5c0.3-0.3,0.5-0.5,0.8-0.7c0.3-0.2,0.6-0.4,0.9-0.5c0.3-0.1,0.6-0.3,0.8-0.4s0.5-0.2,0.8-0.2C7.7,9.4,7.9,9.3,8,9.3
		c0.1,0,0.3-0.1,0.6-0.1c0.3,0,0.5,0,0.5,0C13.8,8.8,19.7,8.7,26.6,8.7z M21.5,32.7l13.5-7l-13.5-7.1V32.7z"/>
</g>
</svg>
