<svg xmlns="http://www.w3.org/2000/svg" width="13.971" height="17.568" viewBox="0 0 13.971 17.568"><g transform="translate(-265.886 -5141.542)"><path d="M272.6,5145.446h0a2.888,2.888,0,1,0,2.888,2.888A2.892,2.892,0,0,0,272.6,5145.446Zm0,.941a1.949,1.949,0,1,1-1.949,1.949A1.952,1.952,0,0,1,272.6,5146.387Z" transform="translate(0.231 0.236)"/><path d="M272.853,5141.857a6.659,6.659,0,0,0-6.652,6.652c0,5.006,6.341,10,6.61,10.179a.408.408,0,0,0,.472-.014c.254-.193,6.221-5.442,6.221-10.167A6.66,6.66,0,0,0,272.853,5141.857Zm-.042,9.317a2.623,2.623,0,1,1,2.623-2.623A2.623,2.623,0,0,1,272.81,5151.174Z" transform="translate(0.019 0.019)" fill="#fff"/><path d="M272.872,5141.542h0a7.006,7.006,0,0,0-6.986,6.986c0,5.277,6.69,10.411,6.758,10.458a.755.755,0,0,0,.413.125.732.732,0,0,0,.447-.15c.064-.048,6.354-5.409,6.354-10.432A7.006,7.006,0,0,0,272.872,5141.542Zm0,.68h.01a6.328,6.328,0,0,1,6.308,6.307c0,4.605-5.967,9.8-6.089,9.9a.076.076,0,0,1-.084,0c-.065-.043-6.463-5.026-6.463-9.9A6.324,6.324,0,0,1,272.872,5142.222Z" transform="translate(0)"/></g></svg>