<?xml version="1.0"?>
<svg xmlns="http://www.w3.org/2000/svg" viewBox="0 0 32 32">
    <path style="text-indent:0;text-align:start;line-height:normal;text-transform:none;block-progression:tb;-inkscape-font-specification:Sans" d="M 9.625 5 C 7.0903781 5 5 7.0903781 5 9.625 L 5 22.375 C 5 24.909622 7.0903781 27 9.625 27 L 22.375 27 C 24.909622 27 27 24.909622 27 22.375 L 27 9.625 C 27 7.0903781 24.909622 5 22.375 5 L 9.625 5 z M 9.625 7 L 22.375 7 C 23.828378 7 25 8.1716219 25 9.625 L 25 22.375 C 25 23.828378 23.828378 25 22.375 25 L 9.625 25 C 8.1716219 25 7 23.828378 7 22.375 L 7 9.625 C 7 8.1716219 8.1716219 7 9.625 7 z M 16 9.21875 C 11.985 9.21875 8.71875 11.867 8.71875 15.125 C 8.71875 18.046 11.3135 20.4755 14.8125 20.9375 C 15.0495 20.9885 15.3555 21.1105 15.4375 21.3125 C 15.5105 21.4965 15.49375 21.78275 15.46875 21.96875 C 15.46875 21.96875 15.394 22.48375 15.375 22.59375 C 15.343 22.77775 15.223 23.327 16 23 C 16.777 22.673 20.19075 20.509 21.71875 18.75 C 22.77475 17.592 23.28125 16.429 23.28125 15.125 C 23.28125 11.867 20.015 9.21875 16 9.21875 z M 11.71875 13.40625 C 11.92975 13.40625 12.09375 13.57025 12.09375 13.78125 L 12.09375 16.28125 L 13.15625 16.28125 C 13.36725 16.28125 13.53125 16.4765 13.53125 16.6875 C 13.53025 16.8985 13.36625 17.0625 13.15625 17.0625 L 11.71875 17.0625 C 11.50775 17.0625 11.3125 16.8985 11.3125 16.6875 L 11.3125 13.78125 C 11.3125 13.57025 11.50775 13.40625 11.71875 13.40625 z M 14.28125 13.40625 C 14.49125 13.40625 14.65625 13.57025 14.65625 13.78125 L 14.65625 16.6875 C 14.65625 16.8985 14.49225 17.0625 14.28125 17.0625 C 14.07125 17.0625 13.875 16.8985 13.875 16.6875 L 13.875 13.78125 C 13.875 13.57025 14.07025 13.40625 14.28125 13.40625 z M 15.46875 13.40625 C 15.50775 13.39325 15.55275 13.40625 15.59375 13.40625 C 15.71275 13.40625 15.803 13.4665 15.875 13.5625 L 17.375 15.5625 L 17.375 13.78125 C 17.375 13.57025 17.54 13.40625 17.75 13.40625 C 17.961 13.40625 18.125 13.57025 18.125 13.78125 L 18.125 16.6875 C 18.125 16.8525 18.031 16.97925 17.875 17.03125 C 17.836 17.04425 17.791 17.0625 17.75 17.0625 C 17.631 17.0625 17.5095 17.00225 17.4375 16.90625 L 15.96875 14.875 L 15.96875 16.6875 C 15.96875 16.8985 15.80475 17.0625 15.59375 17.0625 C 15.38275 17.0625 15.1875 16.8985 15.1875 16.6875 L 15.1875 13.78125 C 15.1875 13.61625 15.31275 13.45825 15.46875 13.40625 z M 19.03125 13.40625 L 20.46875 13.40625 C 20.67975 13.40625 20.84375 13.57025 20.84375 13.78125 C 20.84375 13.99225 20.67975 14.15625 20.46875 14.15625 L 19.40625 14.15625 L 19.40625 14.84375 L 20.46875 14.84375 C 20.67975 14.84375 20.84375 15.00775 20.84375 15.21875 C 20.84375 15.42875 20.67975 15.625 20.46875 15.625 L 19.40625 15.625 L 19.40625 16.28125 L 20.46875 16.28125 C 20.67975 16.28125 20.84375 16.4765 20.84375 16.6875 C 20.84375 16.8985 20.67975 17.0625 20.46875 17.0625 L 19.03125 17.0625 C 18.82125 17.0625 18.65625 16.8985 18.65625 16.6875 L 18.65625 15.21875 L 18.65625 13.78125 C 18.65625 13.57025 18.82025 13.40625 19.03125 13.40625 z" overflow="visible" font-family="Sans"/>
</svg>
