<svg xmlns="http://www.w3.org/2000/svg" width="53.985" height="54.175" viewBox="0 0 53.985 54.175">
  <g id="グループ_1724" data-name="グループ 1724" transform="translate(-267 -1390.722)">
    <g id="グループ_1716" data-name="グループ 1716" transform="translate(267 1395.695)">
      <rect id="長方形_618" data-name="長方形 618" width="45.1" height="45.101" rx="10" fill="#fff"/>
      <path id="パス_2169" data-name="パス 2169" d="M305.266,1400.02a4.819,4.819,0,0,1,4.814,4.813v31.434a4.819,4.819,0,0,1-4.814,4.814H273.834a4.82,4.82,0,0,1-4.814-4.814v-31.434a4.82,4.82,0,0,1,4.814-4.813h31.432m0-2.02H273.834a6.854,6.854,0,0,0-6.834,6.833v31.434a6.854,6.854,0,0,0,6.834,6.834h31.432a6.854,6.854,0,0,0,6.834-6.834v-31.434a6.854,6.854,0,0,0-6.834-6.833Z" transform="translate(-267 -1398)" fill="#516075"/>
    </g>
    <g id="グループ_1717" data-name="グループ 1717" transform="translate(267 1395.695)">
      <path id="パス_2170" data-name="パス 2170" d="M267,1411.667V1406.2a8.106,8.106,0,0,1,7.959-8.2h29.182a8.106,8.106,0,0,1,7.958,8.2v5.467Z" transform="translate(-267 -1398)" fill="#516075"/>
      <path id="パス_2171" data-name="パス 2171" d="M304.141,1399.346a6.744,6.744,0,0,1,6.612,6.854v4.121H268.346V1406.2a6.744,6.744,0,0,1,6.613-6.854h29.182m0-1.346H274.959a8.106,8.106,0,0,0-7.959,8.2v5.467h45.1V1406.2a8.106,8.106,0,0,0-7.958-8.2Z" transform="translate(-267 -1398)" fill="#516075"/>
    </g>
    <g id="グループ_1720" data-name="グループ 1720" transform="translate(274.555 1390.722)">
      <g id="グループ_1718" data-name="グループ 1718" transform="translate(0)">
        <path id="パス_1201" data-name="パス 1201" d="M282.136,1392.753a2.019,2.019,0,0,0-2.049,1.99v5.745a2.051,2.051,0,0,0,4.1,0v-5.751a2.02,2.02,0,0,0-2.051-1.987Z" transform="translate(-278.699 -1391.365)" fill="#516075"/>
        <path id="パス_1201-2" data-name="パス 1201" d="M281.494,1392.11a2.02,2.02,0,0,1,2.05,1.987v5.751a2.02,2.02,0,0,1-2.05,1.987h0a2.02,2.02,0,0,1-2.049-1.99V1394.1a2.02,2.02,0,0,1,2.049-1.99h0m0-1.388h0a3.45,3.45,0,0,0-2.416.976,3.325,3.325,0,0,0-1.021,2.4v5.745a3.324,3.324,0,0,0,1.02,2.4,3.449,3.449,0,0,0,2.415.976,3.413,3.413,0,0,0,3.441-3.374V1394.1a3.412,3.412,0,0,0-3.438-3.375Z" transform="translate(-278.056 -1390.722)" fill="#fff"/>
      </g>
      <g id="グループ_1719" data-name="グループ 1719" transform="translate(21.888 0.021)">
        <path id="パス_1201-3" data-name="パス 1201" d="M314.075,1392.753a1.988,1.988,0,0,0-1.988,1.99v5.745a1.989,1.989,0,0,0,3.978,0v-5.751a1.989,1.989,0,0,0-1.99-1.987Z" transform="translate(-310.72 -1391.386)" fill="#516075"/>
        <path id="パス_1201-4" data-name="パス 1201" d="M313.442,1392.12a1.989,1.989,0,0,1,1.989,1.987v5.751a1.988,1.988,0,0,1-1.989,1.987h0a1.989,1.989,0,0,1-1.987-1.99v-5.745a1.988,1.988,0,0,1,1.988-1.99h0m0-1.367h0a3.355,3.355,0,0,0-3.355,3.357v5.745a3.356,3.356,0,0,0,6.711,0v-5.752a3.36,3.36,0,0,0-3.356-3.354Z" transform="translate(-310.087 -1390.753)" fill="#fff"/>
      </g>
    </g>
    <g id="グループ_1721" data-name="グループ 1721" transform="translate(274.757 1412.779)">
      <rect id="長方形_619" data-name="長方形 619" width="5.309" height="4.683" transform="translate(8.428)" fill="#516075"/>
      <rect id="長方形_620" data-name="長方形 620" width="5.309" height="4.683" transform="translate(17.01)" fill="#516075"/>
      <rect id="長方形_621" data-name="長方形 621" width="5.309" height="4.683" transform="translate(24.966)" fill="#516075"/>
      <rect id="長方形_622" data-name="長方形 622" width="5.309" height="4.683" transform="translate(8.428 7.779)" fill="#516075"/>
      <rect id="長方形_623" data-name="長方形 623" width="5.309" height="4.683" transform="translate(17.01 7.779)" fill="#516075"/>
      <rect id="長方形_624" data-name="長方形 624" width="5.309" height="4.683" transform="translate(24.966 7.779)" fill="#516075"/>
      <rect id="長方形_625" data-name="長方形 625" width="5.309" height="4.675" transform="translate(8.428 15.718)" fill="#516075"/>
      <rect id="長方形_626" data-name="長方形 626" width="5.309" height="4.683" transform="translate(0 7.779)" fill="#516075"/>
      <rect id="長方形_627" data-name="長方形 627" width="5.309" height="4.675" transform="translate(0 15.718)" fill="#516075"/>
      <rect id="長方形_628" data-name="長方形 628" width="5.309" height="4.675" transform="translate(17.01 15.718)" fill="#516075"/>
      <rect id="長方形_629" data-name="長方形 629" width="5.309" height="4.675" transform="translate(24.966 15.718)" fill="#516075"/>
    </g>
    <g id="グループ_1723" data-name="グループ 1723" transform="translate(294.334 1418.246)">
      <g id="グループ_1722" data-name="グループ 1722">
        <circle id="楕円形_7" data-name="楕円形 7" cx="12.3" cy="12.3" r="12.3" transform="translate(1.025 1.025)" fill="#fff"/>
        <path id="パス_2172" data-name="パス 2172" d="M320.325,1457.651a13.325,13.325,0,1,1,13.325-13.325A13.341,13.341,0,0,1,320.325,1457.651Zm0-24.6a11.275,11.275,0,1,0,11.275,11.275A11.288,11.288,0,0,0,320.325,1433.05Z" transform="translate(-307 -1431)" fill="#516075"/>
      </g>
      <path id="パス_2173" data-name="パス 2173" d="M334.225,1447.25h-8.2a1.025,1.025,0,0,1-1.025-1.025v-8.2a1.025,1.025,0,0,1,2.05,0v7.175h7.175a1.025,1.025,0,1,1,0,2.05Z" transform="translate(-312.7 -1432.9)" fill="#516075"/>
    </g>
  </g>
</svg>
