<svg xmlns="http://www.w3.org/2000/svg" width="399.891" height="282.606" viewBox="0 0 399.891 282.606"><g transform="translate(-193.149 -196.001)"><g transform="matrix(0.978, -0.208, 0.208, 0.978, -4654.578, -1346.629)"><g transform="translate(4389.091 2667.229)"><path d="M4692.7,2667.232c-30.874.2-54.228,0-90.922,13.714-11.944,4.464-25.683,2-38.348.5-16.844-1.985-31.1-9.779-47.922-12.144-15.047-2.125-32.332-1.832-47.467-1.921-14.223-.084-28.326,2.281-42.207,5.187-6.955,1.449-13.882,3.033-20.831,4.472-4.707.977-11.951.018-14.656,4.936-2.521,4.562-.931,16.535,2.063,20.652,4,5.5,10.742,10.529,12.492,17.98a280.414,280.414,0,0,0,17.573,51.609c3.665,8.07,10.574,13.7,18.287,17.573,18.578,9.336,40.573,10.708,60.952,7.769,29.028-4.177,44.772-25.961,56.786-50.846,4.5-10.111,5-21.783,10.913-31.025,3.525-5.493,11.689-3.189,17.54-3.2,8.689-.033,10.781,9.682,12.593,16.151,6.408,22.866,17.1,47.142,38.343,59.117,31.733,17.9,81.714,14.556,102.305-17.718,8.053-12.632,10.272-27.964,14.315-42.262,2.471-8.712,4.662-19.084,13.407-23.875,3.53-1.93,1.06-9.643,1.579-14.115.569-4.885,1.662-9.207-5.287-10.161-12.113-1.673-23.858-6.76-36.262-8.489C4716.192,2669.512,4704.676,2667.148,4692.7,2667.232Zm-204.086,8.12a122.2,122.2,0,0,1,26.005,2.393c50.746,10.735,51.771,31.644,30.88,74.866-17.027,35.224-52.291,44.047-87.816,35.609-16.385-3.893-27.583-15.326-32.866-30.981-5.576-16.535-9.8-34.093-8.845-51.459,1.277-23.256,27.6-26.524,46.429-28.648A252.925,252.925,0,0,1,4488.611,2675.351Zm185.285,0a253.148,253.148,0,0,1,26.218,1.78c18.833,2.125,45.146,5.393,46.422,28.648.949,17.367-3.262,34.924-8.839,51.459-5.281,15.655-16.48,27.088-32.86,30.981-35.531,8.438-70.794-.385-87.822-35.609-20.892-43.222-19.871-64.131,30.875-74.866A122.319,122.319,0,0,1,4673.9,2675.351Z" transform="translate(-4389.091 -2667.229)" fill="#040000"/></g><g transform="translate(4395.164 2685.437)"><path d="M4409.928,2693.06a3.278,3.278,0,0,1-3.765,2.721l-7.356-1.177a3.291,3.291,0,0,1-2.723-3.77h0a3.283,3.283,0,0,1,3.765-2.721l7.356,1.182a3.285,3.285,0,0,1,2.723,3.765Z" transform="translate(-4396.042 -2688.07)" fill="#b2821c"/><path d="M4802.922,2693.06a3.279,3.279,0,0,0,3.765,2.721l7.356-1.177a3.3,3.3,0,0,0,2.727-3.77h0a3.291,3.291,0,0,0-3.77-2.721l-7.356,1.182a3.289,3.289,0,0,0-2.722,3.765Z" transform="translate(-4447.45 -2688.07)" fill="#b2821c"/></g></g><g transform="translate(4 9)"><path d="M11297.834,14343.952a47.573,47.573,0,1,1,10.308-7.025l1.542,12.55Z" transform="translate(-10952 -14067)" fill="#fff"/><text transform="translate(292 260)" fill="#00c1d7" font-size="65" font-family="HiraKakuPro-W6, Hiragino Kaku Gothic Pro" letter-spacing="0.04em"><tspan x="0" y="0">？</tspan></text></g></g></svg>