<svg id="グループ_1551" data-name="グループ 1551" xmlns="http://www.w3.org/2000/svg" width="304.753" height="400.75" viewBox="0 0 304.753 400.75">
  <path id="パス_2003" data-name="パス 2003" d="M330.316,1124.641a24.071,24.071,0,0,1-24.035-22.61h-.041l-.016-8.359h0L306.073,993.6l.871-.906c6.171-6.4,10.511-14.822,14.287-22.967l2.866-6.19,4.105,5.449c4.968,6.6,11.526,10.171,20.044,10.93,1.268.1,2.577.149,3.848.146h.011c13.321-.021,20.747-5.23,21.766-8.921.968-3.508-3.827-6.826-5.936-8.089l-.276-.184q-9.853-7.192-19.649-14.33l-1.06-.773q-9.427-6.872-18.851-13.748a21.232,21.232,0,0,0-7.258-1.426,15.259,15.259,0,0,0-8.9,2.953c-.105.151-.216.3-.327.457l-5.617,6.907c-10.776,12.415-28.938,29.952-43.336,42.841-8.654,7.774-11.179,16.769-10.766,20.915l.008.1c.738,10.868.014,21.288-.687,31.361-.787,11.29-1.528,21.956-.416,33.357l.016.292c.049,14.3-24.411,65.013-47.451,105.465l129.944,13.478c3.075-15.679,10.817-40.982,14.362-45.71l4.611-1.585c14.146,1.017,24.963-1.206,35.069-7.2l.181-.1a132.273,132.273,0,0,0,18.6-11.6Z" transform="translate(-197.957 -791.167)" fill="#fff"/>
  <path id="パス_2004" data-name="パス 2004" d="M261.386,882.782l118.37-.183a17.842,17.842,0,0,1,17.851,17.794l.254,163.228a18.83,18.83,0,0,0-5.782.576l-.235-150.056-142.443.222.151,97.415a20.54,20.54,0,0,0-5.779,1.625L243.6,900.63A17.839,17.839,0,0,1,261.386,882.782Z" transform="translate(-129.389 -876.376)" fill="#fff"/>
  <path id="パス_2005" data-name="パス 2005" d="M271.577,1047.522c1.468.114,2.94.17,4.373.168h.013c16.518-.025,25.964-7.01,27.754-13.483.865-3.142.892-9.254-8.645-15.03l-19.546-14.257-1.063-.773q-9.6-7-19.2-14l-.341-.251-.4-.146a30.509,30.509,0,0,0-6.336-1.671l-.143-91.306,130-.2.23,146.486-14.424,7.44a19.111,19.111,0,0,0-1.044,33.411,19.083,19.083,0,0,0,4.121,34.347,16.993,16.993,0,0,0-3.094,19.168l-115.414.181-.154-98.729c.341-.69.682-1.376,1.011-2.063C255.062,1043.19,262.38,1046.7,271.577,1047.522Z" transform="translate(-121.805 -852.571)" fill="#00b800"/>
  <path id="パス_2006" data-name="パス 2006" d="M397.874,1065.208a17.84,17.84,0,0,1-17.794,17.848l-118.37.184a17.837,17.837,0,0,1-17.845-17.791L243.7,960.737a61.528,61.528,0,0,0,5.774-7.5l.146,94.008,126.74-.2a17.071,17.071,0,0,0,10.23,3.4,16.838,16.838,0,0,0,7.7-1.882l3.559-1.831Z" transform="translate(-129.213 -755.988)" fill="#fff"/>
  <g id="グループ_1548" data-name="グループ 1548" transform="translate(237.907 138.882)">
    <path id="パス_2007" data-name="パス 2007" d="M322.663,996.466l-14.454,7.445a10.758,10.758,0,0,1-9.854-19.127l3.8-1.958a19.259,19.259,0,0,0,3.686-1.417l9.705-4.989a10.731,10.731,0,0,1,7.112,20.047Z" transform="translate(-283.888 -855.742)" fill="#fff"/>
    <path id="パス_2008" data-name="パス 2008" d="M331.319,980.748a12.811,12.811,0,0,1-6.363,7.547l-6.187,3.18a17.044,17.044,0,0,0-3.551,1.336l-10.046,5.176a12.895,12.895,0,0,1-8.724-24.049h0l4.146-2.136s9.987-5.344,13.367-6.993,7.71-.614,7.71-.614a12.855,12.855,0,0,1,9.649,16.553Z" transform="translate(-289.145 -876.746)" fill="#fff"/>
    <path id="パス_2009" data-name="パス 2009" d="M330.4,958.811a12.953,12.953,0,0,1-5.56,17.4l-4.1,2.109a18.972,18.972,0,0,0-10.252,2.026l-10.866,5.6a12.9,12.9,0,0,1-3.289-24.092l16.675-8.6a12.825,12.825,0,0,1,5.847-1.431,13.148,13.148,0,0,1,4,.627A12.834,12.834,0,0,1,330.4,958.811Z" transform="translate(-289.339 -897.285)" fill="#fff"/>
    <path id="パス_2010" data-name="パス 2010" d="M326.288,948.718a23.483,23.483,0,0,1-10.69,14.024l-12.623,6.888-.059-36.989a18.324,18.324,0,0,1,6.039-.987c6.479-.011,13.443,2.823,16.288,7.3C327.337,942.241,326.967,946.076,326.288,948.718Z" transform="translate(-266.203 -931.654)" fill="#fff"/>
  </g>
  <g id="グループ_1550" data-name="グループ 1550" transform="translate(149.061 78.988)">
    <path id="パス_2011" data-name="パス 2011" d="M325.779,909.506H271.9a15.388,15.388,0,0,0-15.42,15.3v53.876a15.392,15.392,0,0,0,15.3,15.422h53.877a15.39,15.39,0,0,0,15.417-15.3V924.926a15.386,15.386,0,0,0-15.3-15.42" transform="translate(-256.485 -909.506)" fill="#00b800"/>
    <path id="パス_2012" data-name="パス 2012" d="M322.286,939.523c0-13.781-13.816-24.993-30.8-24.993s-30.8,11.212-30.8,24.993c0,12.356,10.958,22.705,25.758,24.66,1,.216,2.369.662,2.712,1.52a6.336,6.336,0,0,1,.1,2.785s-.36,2.172-.438,2.637c-.135.779-.619,3.045,2.667,1.661s17.737-10.444,24.2-17.883h0c4.465-4.895,6.6-9.862,6.6-15.379" transform="translate(-249.326 -900.944)" fill="#fff"/>
    <g id="グループ_1549" data-name="グループ 1549" transform="translate(21.464 31.921)">
      <path id="パス_2013" data-name="パス 2013" d="M271.5,921.31H269.34a.6.6,0,0,0-.6.6v13.421a.6.6,0,0,0,.6.6H271.5a.6.6,0,0,0,.6-.6V921.908a.6.6,0,0,0-.6-.6" transform="translate(-257.063 -921.31)" fill="#00b800"/>
      <path id="パス_2014" data-name="パス 2014" d="M282.929,921.31h-2.161a.6.6,0,0,0-.6.6v7.975l-6.15-8.307-.046-.06-.005-.005-.035-.035-.011-.011-.032-.027-.016-.013-.03-.019-.019-.011-.032-.019-.019-.011-.035-.013-.019-.005-.035-.013-.022-.005-.033-.008-.027,0-.03,0-.032,0h-2.182a.6.6,0,0,0-.6.6v13.421a.6.6,0,0,0,.6.6h2.161a.6.6,0,0,0,.6-.6v-7.972l6.158,8.318a.575.575,0,0,0,.154.146l.006.005.038.022.016.011.03.013.027.014.019.005.041.013.008,0a.712.712,0,0,0,.154.019h2.161a.6.6,0,0,0,.6-.6V921.908a.6.6,0,0,0-.6-.6" transform="translate(-253.621 -921.31)" fill="#00b800"/>
      <path id="パス_2015" data-name="パス 2015" d="M273.652,932.568h-5.871v-10.66a.6.6,0,0,0-.6-.6h-2.161a.6.6,0,0,0-.6.6v13.421a.6.6,0,0,0,.168.414l.008.008.008.008a.59.59,0,0,0,.414.168h8.632a.6.6,0,0,0,.6-.6v-2.161a.6.6,0,0,0-.6-.6" transform="translate(-264.422 -921.31)" fill="#00b800"/>
      <path id="パス_2016" data-name="パス 2016" d="M285.49,924.669a.6.6,0,0,0,.6-.6V921.91a.6.6,0,0,0-.6-.6h-8.632a.6.6,0,0,0-.417.168l-.005.008-.011.008a.6.6,0,0,0-.168.414v13.421a.6.6,0,0,0,.168.414l.011.008.008.008a.585.585,0,0,0,.414.168h8.632a.6.6,0,0,0,.6-.6v-2.161a.6.6,0,0,0-.6-.6h-5.871V930.3h5.871a.6.6,0,0,0,.6-.6v-2.161a.6.6,0,0,0-.6-.6h-5.871v-2.269Z" transform="translate(-244.251 -921.31)" fill="#00b800"/>
    </g>
  </g>
  <path id="パス_2017" data-name="パス 2017" d="M503.555,1023.135c-4.954-7.8-17.6-11.88-27.581-9.443L475.8,904.3A24.074,24.074,0,0,0,451.723,880.3l-118.37.184a24.07,24.07,0,0,0-24,24.081l.184,117.491c-8.832,11.731-30.788,33.13-47.622,48.2-6.8,6.111-13.7,16.88-12.81,26.112.706,10.425,0,20.612-.687,30.463-.765,11-1.558,22.373-.416,34.236-.127,11.455-20.985,57.189-46.635,102.228l5.406,3.081c23.04-40.453,47.5-91.166,47.451-105.466l-.016-.292c-1.111-11.4-.371-22.066.416-33.357.7-10.073,1.425-20.493.687-31.361l-.008-.1c-.414-4.146,2.112-13.14,10.765-20.915,14.4-12.888,32.559-30.425,43.336-42.84l5.617-6.907c.111-.154.222-.306.327-.457a15.258,15.258,0,0,1,8.9-2.953,21.232,21.232,0,0,1,7.258,1.425q9.427,6.88,18.851,13.748l1.06.773q9.812,7.152,19.649,14.33l.276.184c2.107,1.263,6.9,4.581,5.936,8.088-1.02,3.691-8.445,8.9-21.766,8.922H355.5c-1.271,0-2.58-.049-3.848-.146-8.518-.759-15.076-4.335-20.044-10.931l-4.105-5.449-2.867,6.19c-3.775,8.145-8.118,16.566-14.286,22.967l-.871.906.154,100.068h0l.016,8.359h.041a24.071,24.071,0,0,0,24.035,22.61l75.813-.119a132.264,132.264,0,0,1-18.6,11.6l-.181.1c-10.106,6-20.923,8.218-35.069,7.2l-4.611,1.585c-3.545,4.727-11.288,30.031-14.362,45.71l6.106,1.2c.99-5.054,8.632-35.82,12.561-42.186l5.476.138c12.691.146,23.289-2.512,32.986-8.243a148.588,148.588,0,0,0,25.877-17.121l32.521-.048a24.071,24.071,0,0,0,24.006-24.079l-.035-21.664,4.684-2.412a16.956,16.956,0,0,0-.765-30.523,19.063,19.063,0,0,0-1.168-32.054,19.183,19.183,0,0,0,6.9-25,18.955,18.955,0,0,0-9.808-8.927l-.005-4.7,15.593-8.505a29.665,29.665,0,0,0,13.735-17.937C506.795,1032.295,506.165,1027.224,503.555,1023.135ZM333.361,886.7l118.37-.184a17.842,17.842,0,0,1,17.851,17.794l.254,163.228a18.851,18.851,0,0,0-5.782.576l-.235-150.056-142.443.222.151,97.415a20.544,20.544,0,0,0-5.779,1.625l-.176-112.772A17.839,17.839,0,0,1,333.361,886.7Zm17.775,188.545c1.468.113,2.94.17,4.373.168h.014c16.517-.025,25.963-7.01,27.754-13.484.865-3.142.892-9.254-8.646-15.03l-19.546-14.257-1.063-.773q-9.6-7-19.2-14l-.341-.251-.4-.146a30.535,30.535,0,0,0-6.336-1.671l-.143-91.306,130-.2.23,146.486-14.424,7.44a19.111,19.111,0,0,0-1.044,33.411,19.083,19.083,0,0,0,4.121,34.346,16.993,16.993,0,0,0-3.094,19.168l-115.414.181-.154-98.729c.341-.689.681-1.376,1.011-2.063C334.621,1070.917,341.939,1074.429,351.136,1075.249Zm118.889,114.268a17.84,17.84,0,0,1-17.794,17.848l-118.37.184a17.837,17.837,0,0,1-17.845-17.791l-.165-104.711a61.547,61.547,0,0,0,5.774-7.5l.146,94.007,126.74-.2a17.073,17.073,0,0,0,10.23,3.4,16.843,16.843,0,0,0,7.7-1.882l3.559-1.831Zm8.021-29.614-14.454,7.445a10.758,10.758,0,0,1-9.854-19.127l3.8-1.958a19.235,19.235,0,0,0,3.686-1.417l9.706-4.989a10.731,10.731,0,0,1,7.112,20.046Zm3.4-36.721a12.812,12.812,0,0,1-6.363,7.548l-6.187,3.18a17.012,17.012,0,0,0-3.551,1.336l-10.046,5.176a12.895,12.895,0,0,1-8.724-24.049h0l4.146-2.136s9.987-5.344,13.367-6.993,7.71-.614,7.71-.614a12.855,12.855,0,0,1,9.649,16.553Zm-1.112-42.476a12.953,12.953,0,0,1-5.56,17.4l-4.1,2.109a18.975,18.975,0,0,0-10.252,2.026l-10.866,5.6a12.9,12.9,0,0,1-3.288-24.092l16.674-8.6a12.827,12.827,0,0,1,5.846-1.43,13.147,13.147,0,0,1,4,.627A12.834,12.834,0,0,1,480.334,1080.706Zm19.022-44.463a23.484,23.484,0,0,1-10.69,14.025l-12.623,6.887-.06-36.989a18.333,18.333,0,0,1,6.039-.987c6.479-.011,13.443,2.823,16.288,7.3C500.4,1029.766,500.034,1033.6,499.355,1036.242Z" transform="translate(-201.364 -880.297)"/>
  <path id="パス_2018" data-name="パス 2018" d="M280.582,1015.835a13.327,13.327,0,1,1,13.3-13.349A13.343,13.343,0,0,1,280.582,1015.835ZM280.55,995.4a7.107,7.107,0,1,0,7.118,7.1A7.116,7.116,0,0,0,280.55,995.4Z" transform="translate(-89.105 -694.73)"/>
</svg>
