<svg xmlns="http://www.w3.org/2000/svg" width="48.941" height="28.306" viewBox="0 0 48.941 28.306"><g transform="translate(-35.847 -225.056)"><path d="M30.4,2.418V2.412c0-.01.091-1.032.091-1.377C30.48.952,29.938.69,28.364.409A27.059,27.059,0,0,0,23.821,0a19.065,19.065,0,0,0-5.264.622c-.147.037-.282.071-.406.1-.35.082-.621.152-.86.215a6.13,6.13,0,0,1-.96.2,18.392,18.392,0,0,1-2.164,0,6.13,6.13,0,0,1-.96-.2C12.967.875,12.7.8,12.346.722c-.125-.029-.259-.064-.406-.1A19.065,19.065,0,0,0,6.676,0,27.059,27.059,0,0,0,2.133.409C.557.691.015.953,0,1.035,0,1.379.091,2.4.091,2.412v.012a.227.227,0,0,0,.125.222,1.017,1.017,0,0,0,.114.042.7.7,0,0,1,.563.619l.021.143C1.08,4.612,1.52,7.7,2.821,8.777a6.262,6.262,0,0,0,4.107,1.257,7.725,7.725,0,0,0,4.135-1.063,9.583,9.583,0,0,0,2.3-2.7,8.908,8.908,0,0,0,.9-2.062.929.929,0,0,1-.2-.624.621.621,0,0,1,.276-.426,1.771,1.771,0,0,1,1.817,0,.621.621,0,0,1,.276.426.929.929,0,0,1-.2.624,8.912,8.912,0,0,0,.9,2.062,9.579,9.579,0,0,0,2.3,2.7,7.722,7.722,0,0,0,4.134,1.063,6.262,6.262,0,0,0,4.107-1.257c1.3-1.079,1.741-4.165,1.907-5.327l.021-.142a.7.7,0,0,1,.563-.619,1.016,1.016,0,0,0,.114-.042.227.227,0,0,0,.125-.222ZM13.329,3.851a7.233,7.233,0,0,1-2.8,4.645,6.234,6.234,0,0,1-3.46.828,10.859,10.859,0,0,1-2.044-.182A3.57,3.57,0,0,1,2.67,7.371c-.543-1.143-1.19-4.08-.437-5.384C2.575,1.394,3.5.987,5,.777A19.642,19.642,0,0,1,8.332.644,8.516,8.516,0,0,1,12.683,1.8C13.381,2.279,13.449,2.89,13.329,3.851Zm14.5,3.52A3.57,3.57,0,0,1,25.47,9.142a10.859,10.859,0,0,1-2.044.182,6.232,6.232,0,0,1-3.46-.828,7.233,7.233,0,0,1-2.8-4.645c-.155-1.246.107-1.681.646-2.047A8.516,8.516,0,0,1,22.165.644,19.642,19.642,0,0,1,25.5.777c1.492.21,2.422.617,2.763,1.21C29.016,3.291,28.37,6.228,27.827,7.371Z" transform="matrix(0.899, -0.438, 0.438, 0.899, 35.847, 238.425)" fill="#070303"/><g transform="translate(52.752 244.058) rotate(-22)"><path d="M30.4,2.418V2.412c0-.01.091-1.032.091-1.376C30.481.952,29.938.69,28.364.409A27.06,27.06,0,0,0,23.821,0a19.069,19.069,0,0,0-5.264.622c-.147.037-.282.071-.406.1-.35.082-.621.152-.86.215a6.125,6.125,0,0,1-.96.2,18.419,18.419,0,0,1-2.164,0,6.125,6.125,0,0,1-.96-.2C12.967.875,12.7.8,12.346.723c-.125-.029-.259-.063-.406-.1A19.069,19.069,0,0,0,6.676,0,27.059,27.059,0,0,0,2.133.409C.557.691.015.953,0,1.035,0,1.379.091,2.4.091,2.412v.012a.227.227,0,0,0,.125.222,1.029,1.029,0,0,0,.114.042.7.7,0,0,1,.563.619l.021.143C1.08,4.613,1.52,7.7,2.821,8.777a6.262,6.262,0,0,0,4.107,1.257,7.724,7.724,0,0,0,4.135-1.064,9.582,9.582,0,0,0,2.3-2.7,8.909,8.909,0,0,0,.9-2.062.929.929,0,0,1-.2-.624.621.621,0,0,1,.276-.426,1.771,1.771,0,0,1,1.817,0,.621.621,0,0,1,.276.426.929.929,0,0,1-.2.624,8.913,8.913,0,0,0,.9,2.062,9.578,9.578,0,0,0,2.3,2.7,7.721,7.721,0,0,0,4.134,1.064,6.262,6.262,0,0,0,4.107-1.257c1.3-1.079,1.741-4.165,1.907-5.327l.021-.142a.7.7,0,0,1,.563-.619,1.03,1.03,0,0,0,.114-.042.227.227,0,0,0,.125-.222ZM13.329,3.851a7.233,7.233,0,0,1-2.8,4.645,6.234,6.234,0,0,1-3.46.828,10.867,10.867,0,0,1-2.044-.182A3.571,3.571,0,0,1,2.67,7.371c-.543-1.143-1.19-4.08-.437-5.385C2.575,1.394,3.5.987,5,.777A19.633,19.633,0,0,1,8.332.644,8.516,8.516,0,0,1,12.684,1.8C13.381,2.279,13.449,2.89,13.329,3.851Zm14.5,3.52A3.571,3.571,0,0,1,25.47,9.142a10.867,10.867,0,0,1-2.044.182,6.231,6.231,0,0,1-3.46-.828,7.233,7.233,0,0,1-2.8-4.645c-.155-1.246.107-1.681.646-2.047A8.516,8.516,0,0,1,22.165.644,19.634,19.634,0,0,1,25.5.777c1.492.21,2.422.617,2.763,1.21C29.017,3.291,28.37,6.228,27.827,7.371Z" transform="translate(0 0)" fill="#070303"/><path d="M10.7,6.747A3.571,3.571,0,0,1,8.346,8.518,10.872,10.872,0,0,1,6.3,8.7a6.231,6.231,0,0,1-3.46-.828,7.233,7.233,0,0,1-2.8-4.645C-.111,1.981.151,1.546.69,1.18A8.515,8.515,0,0,1,5.042.019,19.634,19.634,0,0,1,8.377.153c1.492.21,2.422.617,2.763,1.21C11.893,2.667,11.247,5.6,10.7,6.747Z" transform="translate(17.123 0.624)" fill="#9f9f9f" stroke="#000" stroke-width="1"/><path d="M.342,1.362C.684.77,1.614.363,3.105.153A19.634,19.634,0,0,1,6.441.019a8.515,8.515,0,0,1,4.352,1.16c.539.367.8.8.646,2.047a7.233,7.233,0,0,1-2.8,4.645A6.231,6.231,0,0,1,5.18,8.7a10.872,10.872,0,0,1-2.044-.182A3.571,3.571,0,0,1,.779,6.747C.236,5.6-.411,2.667.342,1.362Z" transform="translate(1.893 0.624)" fill="#9f9f9f" stroke="#000" stroke-width="1"/></g></g></svg>