<svg xmlns="http://www.w3.org/2000/svg" width="35.265" height="11.604" viewBox="0 0 35.265 11.604">
  <g id="グループ_453" data-name="グループ 453" transform="translate(-60.746 -743.489)">
    <path id="パス_66" data-name="パス 66" d="M95.9,746.285v-.007c0-.012.106-1.193.106-1.592-.019-.1-.646-.4-2.467-.724a31.293,31.293,0,0,0-5.253-.473,22.05,22.05,0,0,0-6.087.719c-.17.043-.326.083-.47.117-.4.094-.718.176-.995.249a7.081,7.081,0,0,1-1.11.235,21.29,21.29,0,0,1-2.5,0,7.082,7.082,0,0,1-1.11-.235c-.277-.073-.59-.154-.994-.249-.144-.034-.3-.073-.47-.117a22.05,22.05,0,0,0-6.087-.719,31.293,31.293,0,0,0-5.253.473c-1.822.325-2.449.628-2.467.724,0,.4.1,1.58.106,1.592v.014a.262.262,0,0,0,.144.257,1.187,1.187,0,0,0,.132.049.813.813,0,0,1,.651.716l.024.165c.192,1.344.7,4.912,2.2,6.16a7.241,7.241,0,0,0,4.749,1.454,8.931,8.931,0,0,0,4.781-1.23,11.081,11.081,0,0,0,2.657-3.124,10.3,10.3,0,0,0,1.043-2.384,1.074,1.074,0,0,1-.229-.722.718.718,0,0,1,.319-.493,2.047,2.047,0,0,1,2.1,0,.718.718,0,0,1,.319.493,1.074,1.074,0,0,1-.229.722,10.3,10.3,0,0,0,1.043,2.384,11.076,11.076,0,0,0,2.657,3.124A8.928,8.928,0,0,0,88,755.093a7.241,7.241,0,0,0,4.749-1.454c1.5-1.248,2.013-4.816,2.2-6.16l.024-.165a.813.813,0,0,1,.651-.716,1.188,1.188,0,0,0,.132-.049.263.263,0,0,0,.144-.257Zm-19.745,1.657a8.364,8.364,0,0,1-3.236,5.371,7.209,7.209,0,0,1-4,.957,12.566,12.566,0,0,1-2.364-.21,4.129,4.129,0,0,1-2.726-2.048c-.628-1.322-1.376-4.718-.5-6.226.395-.685,1.47-1.156,3.195-1.4a22.7,22.7,0,0,1,3.857-.154,9.846,9.846,0,0,1,5.032,1.342C76.219,746.124,76.3,746.831,76.159,747.942Zm16.765,4.07A4.129,4.129,0,0,1,90.2,754.06a12.566,12.566,0,0,1-2.364.21,7.205,7.205,0,0,1-4-.957,8.364,8.364,0,0,1-3.236-5.371c-.18-1.441.124-1.944.746-2.367a9.847,9.847,0,0,1,5.032-1.342,22.705,22.705,0,0,1,3.857.154c1.725.243,2.8.713,3.2,1.4C94.3,747.295,93.552,750.69,92.924,752.012Z" transform="translate(0)" fill="#070303"/>
    <path id="パス_67" data-name="パス 67" d="M120.31,753.011a4.129,4.129,0,0,1-2.726,2.048,12.566,12.566,0,0,1-2.364.21,7.205,7.205,0,0,1-4-.957,8.364,8.364,0,0,1-3.236-5.371c-.18-1.441.124-1.944.746-2.367a9.846,9.846,0,0,1,5.032-1.342,22.705,22.705,0,0,1,3.857.154c1.725.243,2.8.713,3.2,1.4C121.686,748.293,120.938,751.689,120.31,753.011Z" transform="translate(-27.386 -0.999)" fill="#9f9f9f" stroke="#000" stroke-width="1"/>
    <path id="パス_68" data-name="パス 68" d="M66.357,746.785c.4-.685,1.47-1.156,3.2-1.4a22.705,22.705,0,0,1,3.857-.154,9.846,9.846,0,0,1,5.032,1.342c.623.424.926.926.746,2.367a8.364,8.364,0,0,1-3.236,5.371,7.205,7.205,0,0,1-4,.957,12.566,12.566,0,0,1-2.364-.21,4.129,4.129,0,0,1-2.726-2.048C66.234,751.689,65.487,748.293,66.357,746.785Z" transform="translate(-3.027 -0.999)" fill="#9f9f9f" stroke="#000" stroke-width="1"/>
  </g>
</svg>
