<svg xmlns="http://www.w3.org/2000/svg" viewBox="0 0 72.41 75.12"><defs><style>.cls-1{fill:#3a3a3a;}.cls-2{fill:#fff;}</style></defs><g id="レイヤー_2" data-name="レイヤー 2"><g id="レイヤー_1-2" data-name="レイヤー 1"><path class="cls-1" d="M72,40.45c-5-4-51.5-9.2-55.61-8.66-2.9.39-10.89,3.46-12.89,4.46s-3.25,2.11-3,3l.86,6.27a11,11,0,0,0,3.14,6.73c3,3,40,15,49,13s16-9,16-9A8.64,8.64,0,0,0,72,51.42V40.75h-.3Z"/><path d="M72.4,40.42a.42.42,0,0,0-.16-.32c-5.32-4.26-52.11-9.26-55.95-8.75-2.88.38-10.92,3.44-13,4.5-1.64.82-3.5,2.07-3.24,3.4,0,0,0,0,0,.06l.86,6.25a11.33,11.33,0,0,0,3.27,7c2.91,2.92,34.51,13.36,46.74,13.36a12.75,12.75,0,0,0,2.67-.24c9-2,16.14-9.05,16.19-9.1a8.93,8.93,0,0,0,2.65-5.16V40.75a.32.32,0,0,0,0-.14A.31.31,0,0,0,72.4,40.42ZM71.51,48c-1.26,1.17-10.89,9.9-19.1,10.81C44,59.74,5.26,46.42,1.72,45.19l-.59-4.31h0c1.71.47,42.05,11.56,50.31,11.81h.27c7.26,0,17-8.59,19.79-11.2ZM3.66,36.64c2.07-1,9.94-4,12.75-4.41,4.06-.54,48.19,4.43,54.85,8.28C69.11,42.53,58.67,52,51.48,51.8c-8-.24-48-11.21-50-11.76a1.7,1.7,0,0,1-.56-.92C.75,38.65,1.56,37.69,3.66,36.64ZM69.15,55.93c-.07.07-7,6.93-15.79,8.88S7.79,54.94,4.78,51.93a10.71,10.71,0,0,1-2.93-5.76C7.24,48,41.41,59.74,51.48,59.74c.38,0,.72,0,1-.05,7.76-.87,16.43-8.18,19-10.5v2.23A8.33,8.33,0,0,1,69.15,55.93Z"/><path class="cls-2" d="M29.89,70.58a2.64,2.64,0,0,1-1,2.11A11.17,11.17,0,0,1,22,74.75a11.17,11.17,0,0,1-6.9-2.06,2.64,2.64,0,0,1-1-2.11V26.84a2.68,2.68,0,0,1,2.68-2.68h10.5a2.68,2.68,0,0,1,2.68,2.68Z"/><path d="M27.62,23.82V.76S26.11,0,22.34,0a20.72,20.72,0,0,0-6,.76V23.82a3.06,3.06,0,0,0-2.64,3V70.58A3,3,0,0,0,14.83,73,11.53,11.53,0,0,0,22,75.12,11.53,11.53,0,0,0,29.09,73a3,3,0,0,0,1.18-2.41V26.84A3.07,3.07,0,0,0,27.62,23.82Zm1.89,46.76a2.29,2.29,0,0,1-.88,1.81,10.78,10.78,0,0,1-6.67,2,10.78,10.78,0,0,1-6.67-2,2.29,2.29,0,0,1-.88-1.81V26.84a2.3,2.3,0,0,1,2.3-2.3h.62a17.12,17.12,0,0,0,5,.71,12.32,12.32,0,0,0,4.51-.71h.36a2.3,2.3,0,0,1,2.3,2.3Z"/><path d="M23.26,37.65a1.09,1.09,0,0,0-1.08,1h-.44a1.09,1.09,0,0,0-2.18.1,1.09,1.09,0,0,0,2.18.1h.44a1.09,1.09,0,1,0,1.08-1.2Zm-2.6,2a.9.9,0,1,1,.9-.9A.9.9,0,0,1,20.66,39.65Zm2.6,0a.9.9,0,1,1,.9-.9A.9.9,0,0,1,23.26,39.65Z"/><path d="M17.94,42.53h-.47v-.2h.68v1a1.72,1.72,0,0,1-.57.1c-.69,0-.9-.44-.9-1s.19-1,.9-1a1.59,1.59,0,0,1,.47.08l0,.21a1.18,1.18,0,0,0-.43-.08c-.49,0-.65.37-.65.82s.16.76.66.76a1.23,1.23,0,0,0,.35,0Z"/><path d="M18.87,43.16h.86v.2H18.64V41.44h.23Z"/><path d="M20.58,41.44h.21l.74,1.92h-.25l-.21-.56h-.79l-.21.56h-.23ZM21,42.61l-.33-.91-.34.91Z"/><path d="M22.77,41.72a1,1,0,0,0-.41-.11c-.16,0-.37.06-.37.3s.16.25.37.35.52.26.52.58a.52.52,0,0,1-.58.56,1.51,1.51,0,0,1-.61-.13l.06-.21a1.47,1.47,0,0,0,.54.13.31.31,0,0,0,.35-.33c0-.19-.14-.29-.41-.41s-.47-.23-.47-.53a.52.52,0,0,1,.58-.51,1.28,1.28,0,0,1,.5.11Z"/><path d="M24.23,41.72a1,1,0,0,0-.41-.11c-.17,0-.37.06-.37.3s.15.25.37.35.51.26.51.58a.51.51,0,0,1-.57.56,1.51,1.51,0,0,1-.61-.13l.06-.21a1.43,1.43,0,0,0,.54.13.31.31,0,0,0,.35-.33c0-.19-.15-.29-.41-.41s-.47-.23-.47-.53a.51.51,0,0,1,.57-.51,1.29,1.29,0,0,1,.51.11Z"/><path d="M25,42.28h.7v.19H25v.69h.85v.2H24.77V41.44h1v.2H25Z"/><path d="M27.18,41.72a1.08,1.08,0,0,0-.42-.11c-.16,0-.36.06-.36.3s.15.25.37.35.51.26.51.58a.52.52,0,0,1-.58.56,1.5,1.5,0,0,1-.6-.13l.06-.21a1.38,1.38,0,0,0,.53.13c.18,0,.36-.07.36-.33s-.15-.29-.41-.41-.47-.23-.47-.53a.51.51,0,0,1,.57-.51,1.24,1.24,0,0,1,.5.11Z"/><path d="M16.34,45.56c0-.53.2-1,.9-1a1.59,1.59,0,0,1,.47.08l0,.21a1.18,1.18,0,0,0-.43-.08c-.49,0-.65.37-.65.82s.18.76.66.76a1.45,1.45,0,0,0,.45-.08l0,.21a1.61,1.61,0,0,1-.49.08c-.69,0-.9-.44-.9-1Z"/><path d="M18.38,46.3h.85v.2H18.15V44.58h.23Z"/><path d="M19.81,45.42h.7v.19h-.7v.69h.84v.2H19.58V44.58h1v.2h-.78Z"/><path d="M21.57,44.58h.22l.74,1.92h-.26l-.21-.56h-.78l-.21.56h-.24ZM22,45.75l-.34-.91-.33.91Z"/><path d="M23.06,46.5h-.22V44.58h.31l.93,1.56V44.58h.22V46.5H24l-1-1.65Z"/><path d="M25.08,45.42h.7v.19h-.7v.69h.85v.2H24.86V44.58h1v.2h-.79Z"/><path d="M27.25,46c-.1-.23-.18-.34-.36-.34h-.33v.82h-.21V44.58h.44c.39,0,.72.08.72.51a.47.47,0,0,1-.36.5c.12,0,.2.13.28.31l.25.6h-.25C27.39,46.37,27.31,46.18,27.25,46Zm0-.91c0-.26-.19-.33-.47-.33h-.25v.71H27A.35.35,0,0,0,27.28,45.11Z"/></g></g></svg>