<?xml version="1.0" encoding="utf-8"?>
<!-- Generator: Adobe Illustrator 25.2.3, SVG Export Plug-In . SVG Version: 6.00 Build 0)  -->
<svg version="1.1" id="_x32_" xmlns="http://www.w3.org/2000/svg" xmlns:xlink="http://www.w3.org/1999/xlink" x="0px" y="0px"
	 viewBox="0 0 512 512" style="enable-background:new 0 0 512 512;" xml:space="preserve">
<style type="text/css">
	.st0{fill:#E5CE62;}
</style>
<g>
	<path class="st0" d="M512,180.2c0-21.5-17.4-38.9-38.9-38.9c-21.5,0-38.9,17.4-38.9,38.9c0,10.5,4.2,20,10.9,27
		c-26.5,54.8-77,73.9-116.2,56.6c-34.9-15.4-47.8-59.5-52.1-93.7c14.2-7.5,23.9-22.4,23.9-39.6c0-24.7-20-44.7-44.7-44.7
		c-24.7,0-44.7,20-44.7,44.7c0,17.2,9.7,32.1,23.9,39.6c-4.4,34.2-17.2,78.3-52.1,93.7c-39.2,17.3-89.7-1.8-116.2-56.6
		c6.8-7,10.9-16.5,10.9-27c0-21.5-17.4-38.9-38.9-38.9S0,158.7,0,180.2c0,19.8,14.7,36,33.8,38.5l55.8,207.5h332.9l55.8-207.5
		C497.2,216.2,512,200,512,180.2z"/>
</g>
</svg>
